# xmcd CD database file
#
# Track frame offsets:
#	150
#	13729
#	27905
#	41449
#	58720
#	74702
#	90356
#	103512
#	120369
#	133415
#	145359
#	158334
#	173813
#	187578
#	201562
#	214168
#	227958
#	244824
#	256372
#	271386
#
# Disc length: 3780 seconds
#
# Revision: 4
# Processed by: cddbd v1.5.2PL0 Copyright (c) Steve Scherf et al.
# Submitted via: CDex 1.70beta2
#
DISCID=1f0ec214
DTITLE=Eartha Kitt - C'est Si Bon
DYEAR=1952
DGENRE=Jazz
TTITLE0=C'est Si Bon
TTITLE1=Uska Dara (A Turkish Tale)
TTITLE2=Bal Petit Bal
TTITLE3=Monotonous
TTITLE4=I Want To Be Evil
TTITLE5=Angelitos Negros
TTITLE6=Avril au Portugal
TTITLE7=Lilac Wine
TTITLE8=African Lullaby
TTITLE9=Mountain High, Valley Low
TTITLE10=Annie Doesn't Live Here Anymore
TTITLE11=Santa Baby
TTITLE12=My Heart Belongs To Daddy
TTITLE13=Let's Do It
TTITLE14=Somebody Bad Stole De Wedding Bell
TTITLE15=Mink Shmink
TTITLE16=Tea In Chicago
TTITLE17=My Daddy Is A Dandy
TTITLE18=This Year's Santa Baby
TTITLE19=Under The Bridges Of Paris
EXTD=YEAR: 1952
EXTT0=
EXTT1=
EXTT2=
EXTT3=
EXTT4=
EXTT5=
EXTT6=
EXTT7=
EXTT8=
EXTT9=
EXTT10=
EXTT11=
EXTT12=
EXTT13=
EXTT14=
EXTT15=
EXTT16=
EXTT17=
EXTT18=
EXTT19=
PLAYORDER=
